<?xml version="1.0" encoding="iso-8859-1"?>
<!-- Generator: Adobe Illustrator 19.0.0, SVG Export Plug-In . SVG Version: 6.00 Build 0)  -->
<svg version="1.1" id="Capa_1" xmlns="http://www.w3.org/2000/svg" xmlns:xlink="http://www.w3.org/1999/xlink" x="0px" y="0px"
	 viewBox="0 0 464 464" style="enable-background:new 0 0 464 464;" xml:space="preserve">
<path style="fill:#E6E6E6;" d="M288,0H56C42.745,0,32,10.745,32,24v432h304V24c0-13.255,10.745-24,24-24H288z"/>
<path style="fill:#0071BC;" d="M336,56V24c0-13.255,10.745-24,24-24s24,10.745,24,24v32H336z"/>
<circle style="fill:#DA4836;" cx="312" cy="344" r="120"/>
<g>
	<path style="fill:#808080;" d="M64,264h120v16H64V264z"/>
	<path style="fill:#808080;" d="M112,232h88v16h-88V232z"/>
	<path style="fill:#808080;" d="M64,192h168v16H64V192z"/>
	<path style="fill:#808080;" d="M112,160h192v16H112V160z"/>
	<path style="fill:#808080;" d="M64,336h104v16H64V336z"/>
	<path style="fill:#808080;" d="M112,304h56v16h-56V304z"/>
	<path style="fill:#808080;" d="M64,408h120v16H64V408z"/>
	<path style="fill:#808080;" d="M112,376h56v16h-56V376z"/>
</g>
<path style="fill:#FBB03B;" d="M216,64v-1.168c-0.037-9.94-6.511-18.71-16-21.672V32h-16v9.16
	c-11.999,3.732-18.7,16.484-14.968,28.483c1.844,5.929,6.032,10.847,11.592,13.613l15.592,7.8c3.376,1.686,4.745,5.789,3.059,9.165
	c-1.156,2.314-3.52,3.777-6.107,3.779h-2.336c-3.771-0.004-6.828-3.061-6.832-6.832V96h-16v1.168c0.037,9.94,6.511,18.71,16,21.672
	V128h16v-9.16c11.999-3.732,18.7-16.484,14.968-28.483c-1.844-5.929-6.032-10.847-11.592-13.613l-15.592-7.8
	c-3.376-1.686-4.745-5.789-3.059-9.165c1.156-2.314,3.52-3.777,6.107-3.779h2.336c3.771,0.004,6.828,3.061,6.832,6.832V64L216,64z"
	/>
<g>
	<path style="fill:#808080;" d="M80,160h16v16H80V160z"/>
	<path style="fill:#808080;" d="M80,232h16v16H80V232z"/>
	<path style="fill:#808080;" d="M80,304h16v16H80V304z"/>
	<path style="fill:#808080;" d="M80,376h16v16H80V376z"/>
</g>
<circle style="fill:#F2F2F2;" cx="312" cy="344" r="88"/>
<path style="fill:#DA4836;" d="M296,392c-2.122,0-4.156-0.844-5.656-2.344l-24-24l11.312-11.312L296,372.688l54.344-54.344
	l11.312,11.312l-60,60C300.156,391.156,298.122,392,296,392z"/>
<g>
</g>
<g>
</g>
<g>
</g>
<g>
</g>
<g>
</g>
<g>
</g>
<g>
</g>
<g>
</g>
<g>
</g>
<g>
</g>
<g>
</g>
<g>
</g>
<g>
</g>
<g>
</g>
<g>
</g>
</svg>
